<svg width="951" height="800" viewBox="0 0 951 800" fill="none" xmlns="http://www.w3.org/2000/svg">
<path fill-rule="evenodd" clip-rule="evenodd" d="M531.764 1058.39C542.72 1055.37 549.823 1044.8 548.478 1033.51L533.123 904.628C531.778 893.343 538.881 882.769 549.837 879.747L581.037 871.14C591.444 868.269 602.446 873.026 607.483 882.574L670.211 1001.47C675.248 1011.02 686.25 1015.78 696.657 1012.9L798.569 984.792C810.809 981.415 817.994 968.757 814.617 956.517L773.773 808.451C770.53 796.696 758.371 789.795 746.616 793.038C744.18 793.709 741.648 793.958 739.128 793.773L647.025 787.016C643.126 786.73 639.219 787.443 635.672 789.087L420.495 888.857C419.347 889.389 418.158 889.826 416.938 890.162L373.538 902.134C361.299 905.51 354.114 918.169 357.49 930.409L396.509 1071.85C399.885 1084.09 412.544 1091.28 424.783 1087.9L531.764 1058.39Z" fill="#473667"/>
<mask id="path-2-inside-1_27_94" fill="white">
<path fill-rule="evenodd" clip-rule="evenodd" d="M846.244 267.044C833.617 256.979 815.555 258.355 804.575 269.758C802.62 265.244 799.561 261.131 795.446 257.851C782.045 247.169 762.522 249.373 751.84 262.774C742.552 274.426 743.007 290.707 752.093 301.78C743.315 313.65 740.272 328.104 742.576 341.709L693.662 403.073L572.632 543.958L595.322 556.713C619.362 570.227 649.598 564.897 667.569 543.978L804.717 384.332C816.375 381.971 827.299 375.653 835.293 365.624C836.064 364.657 836.795 363.671 837.486 362.668C849.458 366.602 863.129 362.955 871.444 352.523C882.126 339.122 879.922 319.599 866.521 308.917C863.164 306.242 859.424 304.375 855.535 303.29C860.764 290.812 857.347 275.894 846.244 267.044Z"/>
</mask>
<path fill-rule="evenodd" clip-rule="evenodd" d="M846.244 267.044C833.617 256.979 815.555 258.355 804.575 269.758C802.62 265.244 799.561 261.131 795.446 257.851C782.045 247.169 762.522 249.373 751.84 262.774C742.552 274.426 743.007 290.707 752.093 301.78C743.315 313.65 740.272 328.104 742.576 341.709L693.662 403.073L572.632 543.958L595.322 556.713C619.362 570.227 649.598 564.897 667.569 543.978L804.717 384.332C816.375 381.971 827.299 375.653 835.293 365.624C836.064 364.657 836.795 363.671 837.486 362.668C849.458 366.602 863.129 362.955 871.444 352.523C882.126 339.122 879.922 319.599 866.521 308.917C863.164 306.242 859.424 304.375 855.535 303.29C860.764 290.812 857.347 275.894 846.244 267.044Z" fill="#EFECF6"/>
<path d="M804.575 269.758L808.638 273.671L802.764 279.771L799.398 272L804.575 269.758ZM752.093 301.78L756.454 298.201L759.242 301.599L756.628 305.134L752.093 301.78ZM742.576 341.709L748.138 340.767L748.559 343.253L746.987 345.225L742.576 341.709ZM693.662 403.073L698.074 406.589L698.009 406.671L697.941 406.749L693.662 403.073ZM572.632 543.958L569.868 548.876L563.868 545.503L568.353 540.282L572.632 543.958ZM595.322 556.713L592.558 561.63L595.322 556.713ZM667.569 543.978L663.29 540.302L667.569 543.978ZM804.717 384.332L800.438 380.656L801.699 379.187L803.597 378.803L804.717 384.332ZM837.486 362.668L832.842 359.465L835.238 355.992L839.247 357.309L837.486 362.668ZM855.535 303.29L854.019 308.724L847.862 307.005L850.332 301.11L855.535 303.29ZM800.511 265.845C813.492 252.364 834.835 250.736 849.76 262.633L842.728 271.455C832.399 263.222 817.618 264.345 808.638 273.671L800.511 265.845ZM798.963 253.44C803.817 257.31 807.438 262.175 809.751 267.516L799.398 272C797.802 268.314 795.304 264.952 791.93 262.262L798.963 253.44ZM747.429 259.258C760.053 243.421 783.125 240.816 798.963 253.44L791.93 262.262C780.965 253.522 764.992 255.326 756.252 266.291L747.429 259.258ZM747.732 305.358C736.993 292.271 736.448 273.034 747.429 259.258L756.252 266.291C748.656 275.819 749.021 289.143 756.454 298.201L747.732 305.358ZM737.014 342.651C734.464 327.595 737.831 311.578 747.557 298.426L756.628 305.134C748.799 315.722 746.08 328.613 748.138 340.767L737.014 342.651ZM746.987 345.225L698.074 406.589L689.251 399.557L738.165 338.192L746.987 345.225ZM697.941 406.749L576.911 547.634L568.353 540.282L689.383 399.397L697.941 406.749ZM575.396 539.041L598.086 551.795L592.558 561.63L569.868 548.876L575.396 539.041ZM598.086 551.795C619.783 563.991 647.071 559.181 663.29 540.302L671.848 547.654C652.126 570.612 618.941 576.462 592.558 561.63L598.086 551.795ZM663.29 540.302L800.438 380.656L808.996 388.008L671.848 547.654L663.29 540.302ZM839.704 369.14C830.853 380.244 818.745 387.247 805.836 389.861L803.597 378.803C814.004 376.696 823.744 371.061 830.882 362.107L839.704 369.14ZM842.13 365.871C841.365 366.981 840.556 368.071 839.704 369.14L830.882 362.107C831.571 361.242 832.225 360.361 832.842 359.465L842.13 365.871ZM875.855 356.04C866.023 368.374 849.864 372.673 835.725 368.027L839.247 357.309C849.051 360.53 860.235 357.535 867.033 349.007L875.855 356.04ZM870.037 304.506C885.874 317.13 888.479 340.202 875.855 356.04L867.033 349.007C875.773 338.042 873.969 322.069 863.004 313.329L870.037 304.506ZM857.051 297.856C861.656 299.141 866.079 301.351 870.037 304.506L863.004 313.329C860.25 311.133 857.193 309.609 854.019 308.724L857.051 297.856ZM849.76 262.633C862.888 273.097 866.916 290.727 860.738 305.47L850.332 301.11C854.612 290.897 851.805 278.691 842.728 271.455L849.76 262.633Z" fill="#473667" mask="url(#path-2-inside-1_27_94)"/>
<mask id="path-4-inside-2_27_94" fill="white">
<path fill-rule="evenodd" clip-rule="evenodd" d="M817.068 345.015C813.85 349.053 809.009 351.036 804.218 350.775C797.208 357.409 786.205 358.04 778.442 351.852C770.793 345.755 768.896 335.116 773.531 326.854C771.902 322.066 772.67 316.575 776.056 312.327C781.34 305.698 790.998 304.607 797.627 309.891C800.949 312.539 802.88 316.285 803.315 320.198C807.227 319.749 811.31 320.796 814.633 323.445C821.262 328.729 822.352 338.386 817.068 345.015Z"/>
</mask>
<path fill-rule="evenodd" clip-rule="evenodd" d="M817.068 345.015C813.85 349.053 809.009 351.036 804.218 350.775C797.208 357.409 786.205 358.04 778.442 351.852C770.793 345.755 768.896 335.116 773.531 326.854C771.902 322.066 772.67 316.575 776.056 312.327C781.34 305.698 790.998 304.607 797.627 309.891C800.949 312.539 802.88 316.285 803.315 320.198C807.227 319.749 811.31 320.796 814.633 323.445C821.262 328.729 822.352 338.386 817.068 345.015Z" fill="#CD6CD6"/>
<path d="M804.218 350.775L800.341 346.678L802.103 345.011L804.525 345.142L804.218 350.775ZM773.531 326.854L778.871 325.037L779.682 327.419L778.451 329.614L773.531 326.854ZM803.315 320.198L803.958 325.802L798.334 326.448L797.708 320.821L803.315 320.198ZM804.525 345.142C807.571 345.308 810.624 344.049 812.657 341.499L821.48 348.532C817.076 354.057 810.447 356.764 803.912 356.408L804.525 345.142ZM781.958 347.44C787.492 351.852 795.344 351.406 800.341 346.678L808.096 354.873C799.073 363.412 784.918 364.228 774.925 356.263L781.958 347.44ZM778.451 329.614C775.146 335.504 776.506 343.095 781.958 347.44L774.925 356.263C765.08 348.415 762.645 334.729 768.611 324.094L778.451 329.614ZM780.467 315.843C778.329 318.525 777.835 321.992 778.871 325.037L768.19 328.671C765.968 322.141 767.011 314.624 771.645 308.81L780.467 315.843ZM794.111 314.303C789.918 310.96 783.81 311.65 780.467 315.843L771.645 308.81C778.871 299.745 792.078 298.254 801.143 305.48L794.111 314.303ZM797.708 320.821C797.432 318.338 796.213 315.978 794.111 314.303L801.143 305.48C805.685 309.1 808.328 314.232 808.922 319.574L797.708 320.821ZM811.117 327.856C809.014 326.18 806.441 325.517 803.958 325.802L802.672 314.593C808.013 313.981 813.607 315.412 818.149 319.033L811.117 327.856ZM812.657 341.499C815.999 337.306 815.309 331.198 811.117 327.856L818.149 319.033C827.215 326.259 828.706 339.466 821.48 348.532L812.657 341.499Z" fill="#473667" mask="url(#path-4-inside-2_27_94)"/>
<circle cx="14.4224" cy="14.4224" r="11.6018" transform="matrix(-0.781974 -0.623311 -0.623311 0.781974 844.446 292.438)" fill="#CD6CD6" stroke="#473667" stroke-width="5.64125"/>
<circle cx="14.4224" cy="14.4224" r="11.6018" transform="matrix(-0.781974 -0.623311 -0.623311 0.781974 869.36 331.298)" fill="#CD6CD6" stroke="#473667" stroke-width="5.64125"/>
<circle cx="14.4224" cy="14.4224" r="11.6018" transform="matrix(-0.781974 -0.623311 -0.623311 0.781974 797.056 280.374)" fill="#CD6CD6" stroke="#473667" stroke-width="5.64125"/>
<rect x="636.431" y="469.103" width="118.001" height="71.675" transform="rotate(-49.3351 636.431 469.103)" fill="#473667"/>
<mask id="path-10-inside-3_27_94" fill="white">
<path fill-rule="evenodd" clip-rule="evenodd" d="M26.4375 482.574C33.0026 467.821 49.6652 460.715 64.6658 465.772C64.3196 460.865 65.1379 455.805 67.2772 450.997C74.2448 435.34 92.5857 428.296 108.243 435.264C121.856 441.322 128.959 455.978 126.001 469.993C139.262 476.48 148.626 487.904 152.853 501.039L224.548 532.944L396.899 602.169L382.644 623.947C367.541 647.022 338.252 656.232 312.661 645.953L117.359 567.51C105.926 570.789 93.3188 570.218 81.6013 565.004C80.4716 564.501 79.3685 563.963 78.2925 563.392C69.4827 572.402 55.6691 575.468 43.4817 570.045C27.8247 563.077 20.7804 544.736 27.748 529.079C29.493 525.158 31.9514 521.777 34.9023 519.021C24.51 510.359 20.665 495.545 26.4375 482.574Z"/>
</mask>
<path fill-rule="evenodd" clip-rule="evenodd" d="M26.4375 482.574C33.0026 467.821 49.6652 460.715 64.6658 465.772C64.3196 460.865 65.1379 455.805 67.2772 450.997C74.2448 435.34 92.5857 428.296 108.243 435.264C121.856 441.322 128.959 455.978 126.001 469.993C139.262 476.48 148.626 487.904 152.853 501.039L224.548 532.944L396.899 602.169L382.644 623.947C367.541 647.022 338.252 656.232 312.661 645.953L117.359 567.51C105.926 570.789 93.3188 570.218 81.6013 565.004C80.4716 564.501 79.3685 563.963 78.2925 563.392C69.4827 572.402 55.6691 575.468 43.4817 570.045C27.8247 563.077 20.7804 544.736 27.748 529.079C29.493 525.158 31.9514 521.777 34.9023 519.021C24.51 510.359 20.665 495.545 26.4375 482.574Z" fill="#EFECF6"/>
<path d="M64.6658 465.772L62.8637 471.117L70.8894 473.823L70.2931 465.374L64.6658 465.772ZM126.001 469.993L120.481 468.828L119.573 473.129L123.522 475.06L126.001 469.993ZM152.853 501.039L147.483 502.767L148.256 505.167L150.56 506.193L152.853 501.039ZM224.548 532.944L222.255 538.098L222.35 538.14L222.446 538.179L224.548 532.944ZM396.899 602.169L401.619 605.258L405.389 599.499L399.002 596.934L396.899 602.169ZM382.644 623.947L387.364 627.037L382.644 623.947ZM312.661 645.953L314.764 640.718L312.661 645.953ZM117.359 567.51L119.462 562.275L117.665 561.553L115.804 562.087L117.359 567.51ZM78.2925 563.392L80.9368 558.409L77.2093 556.431L74.2591 559.448L78.2925 563.392ZM34.9023 519.021L38.7528 523.144L43.4246 518.781L38.5142 514.688L34.9023 519.021ZM66.4679 460.426C48.7345 454.448 29.0435 462.842 21.2836 480.28L31.5915 484.867C36.9618 472.799 50.5959 466.982 62.8637 471.117L66.4679 460.426ZM62.1233 448.704C59.5991 454.376 58.6288 460.363 59.0386 466.169L70.2931 465.374C70.0103 461.368 70.6768 457.233 72.4312 453.291L62.1233 448.704ZM110.536 430.11C92.0328 421.875 70.3575 430.2 62.1233 448.704L72.4312 453.291C78.1321 440.48 93.1386 434.717 105.949 440.418L110.536 430.11ZM131.52 471.158C135.016 454.594 126.631 437.272 110.536 430.11L105.949 440.418C117.082 445.372 122.901 457.363 120.481 468.828L131.52 471.158ZM158.223 499.31C153.545 484.775 143.173 472.114 128.479 464.926L123.522 475.06C135.351 480.847 143.707 491.033 147.483 502.767L158.223 499.31ZM150.56 506.193L222.255 538.098L226.842 527.79L155.147 495.885L150.56 506.193ZM222.446 538.179L394.796 607.404L399.002 596.934L226.651 527.709L222.446 538.179ZM392.179 599.079L377.924 620.858L387.364 627.037L401.619 605.258L392.179 599.079ZM377.924 620.858C364.293 641.683 337.86 649.995 314.764 640.718L310.559 651.188C338.645 662.469 370.789 652.361 387.364 627.037L377.924 620.858ZM314.764 640.718L119.462 562.275L115.257 572.744L310.559 651.188L314.764 640.718ZM79.3078 570.158C92.2813 575.931 106.254 576.564 118.915 572.932L115.804 562.087C105.597 565.015 94.3563 564.505 83.8949 559.85L79.3078 570.158ZM75.6482 568.376C76.839 569.007 78.0591 569.602 79.3078 570.158L83.8949 559.85C82.8841 559.4 81.8979 558.919 80.9368 558.409L75.6482 568.376ZM41.1882 575.199C55.5993 581.612 71.9209 577.978 82.326 567.336L74.2591 559.448C67.0444 566.827 55.7389 569.325 45.7753 564.891L41.1882 575.199ZM22.594 526.786C14.3597 545.289 22.6846 566.965 41.1882 575.199L45.7753 564.891C32.9647 559.19 27.2011 544.184 32.9019 531.373L22.594 526.786ZM31.0518 514.898C27.5582 518.161 24.652 522.161 22.594 526.786L32.9019 531.373C34.3339 528.155 36.3445 525.393 38.7528 523.144L31.0518 514.898ZM21.2836 480.28C14.4583 495.617 19.0112 513.119 31.2904 523.354L38.5142 514.688C30.0088 507.598 26.8717 495.473 31.5915 484.867L21.2836 480.28Z" fill="#473667" mask="url(#path-10-inside-3_27_94)"/>
<mask id="path-12-inside-4_27_94" fill="white">
<path fill-rule="evenodd" clip-rule="evenodd" d="M88.2734 538.314C92.9908 540.414 98.2007 539.942 102.332 537.502C111.61 540.157 121.666 535.644 125.702 526.574C129.679 517.637 126.458 507.322 118.536 502.127C117.775 497.128 114.561 492.609 109.598 490.4C101.853 486.953 92.7798 490.438 89.3331 498.183C87.606 502.064 87.6193 506.278 89.037 509.951C85.3585 511.356 82.2177 514.168 80.4903 518.05C77.0436 525.795 80.5282 534.868 88.2734 538.314Z"/>
</mask>
<path fill-rule="evenodd" clip-rule="evenodd" d="M88.2734 538.314C92.9908 540.414 98.2007 539.942 102.332 537.502C111.61 540.157 121.666 535.644 125.702 526.574C129.679 517.637 126.458 507.322 118.536 502.127C117.775 497.128 114.561 492.609 109.598 490.4C101.853 486.953 92.7798 490.438 89.3331 498.183C87.606 502.064 87.6193 506.278 89.037 509.951C85.3585 511.356 82.2177 514.168 80.4903 518.05C77.0436 525.795 80.5282 534.868 88.2734 538.314Z" fill="#CD6CD6"/>
<path d="M102.332 537.502L103.884 532.078L101.552 531.411L99.4631 532.644L102.332 537.502ZM118.536 502.127L112.959 502.976L113.338 505.464L115.442 506.844L118.536 502.127ZM89.037 509.951L91.05 515.221L96.3383 513.201L94.2998 507.92L89.037 509.951ZM99.4631 532.644C96.8359 534.196 93.5465 534.486 90.5669 533.161L85.9798 543.468C92.435 546.341 99.5654 545.687 105.201 542.359L99.4631 532.644ZM120.548 524.28C117.671 530.746 110.497 533.971 103.884 532.078L100.78 542.925C112.723 546.343 125.66 540.542 130.856 528.867L120.548 524.28ZM115.442 506.844C121.09 510.548 123.383 517.91 120.548 524.28L130.856 528.867C135.975 517.364 131.826 504.097 121.629 497.41L115.442 506.844ZM107.304 495.554C110.438 496.948 112.475 499.797 112.959 502.976L124.113 501.278C123.074 494.458 118.684 488.269 111.891 485.246L107.304 495.554ZM94.4871 500.477C96.667 495.578 102.405 493.374 107.304 495.554L111.891 485.246C101.3 480.533 88.8925 485.298 84.1792 495.889L94.4871 500.477ZM94.2998 507.92C93.4 505.589 93.3941 502.933 94.4871 500.477L84.1792 495.889C81.8179 501.195 81.8387 506.968 83.7742 511.983L94.2998 507.92ZM85.6442 520.343C86.7374 517.887 88.7151 516.113 91.05 515.221L87.024 504.681C82.0018 506.6 77.698 510.449 75.3363 515.756L85.6442 520.343ZM90.5669 533.161C85.6682 530.981 83.4643 525.242 85.6442 520.343L75.3363 515.756C70.6229 526.348 75.3882 538.755 85.9798 543.468L90.5669 533.161Z" fill="#473667" mask="url(#path-12-inside-4_27_94)"/>
<circle cx="58.78" cy="496.966" r="11.6018" transform="rotate(-66.0105 58.78 496.966)" fill="#CD6CD6" stroke="#473667" stroke-width="5.64125"/>
<circle cx="54.5862" cy="542.936" r="11.6018" transform="rotate(-66.0105 54.5862 542.936)" fill="#CD6CD6" stroke="#473667" stroke-width="5.64125"/>
<circle cx="95.2727" cy="464.413" r="11.6018" transform="rotate(-66.0105 95.2727 464.413)" fill="#CD6CD6" stroke="#473667" stroke-width="5.64125"/>
<rect width="118.001" height="71.675" transform="matrix(-0.927947 -0.372712 -0.372712 0.927947 305.775 565.154)" fill="#473667"/>
<mask id="path-18-inside-5_27_94" fill="white">
<path fill-rule="evenodd" clip-rule="evenodd" d="M157.936 174.222L298.082 211.425C319.897 194.428 345.347 181.348 373.666 173.536C402.028 165.712 430.629 163.9 458.112 167.33L559.43 63.4683L628.321 286.79C636.529 290.655 644.23 296.706 650.467 304.735C666.959 325.964 667.523 353.69 652.778 369.836L765.1 777.011L795.972 888.925L631.394 813.894L377.863 1004.26L234.563 484.786C215.324 478.554 201.856 457.702 203.145 433.734C203.766 422.198 207.708 411.747 213.838 403.548L157.936 174.222Z"/>
</mask>
<path fill-rule="evenodd" clip-rule="evenodd" d="M157.936 174.222L298.082 211.425C319.897 194.428 345.347 181.348 373.666 173.536C402.028 165.712 430.629 163.9 458.112 167.33L559.43 63.4683L628.321 286.79C636.529 290.655 644.23 296.706 650.467 304.735C666.959 325.964 667.523 353.69 652.778 369.836L765.1 777.011L795.972 888.925L631.394 813.894L377.863 1004.26L234.563 484.786C215.324 478.554 201.856 457.702 203.145 433.734C203.766 422.198 207.708 411.747 213.838 403.548L157.936 174.222Z" fill="#EFECF6"/>
<path d="M298.082 211.425L296.705 216.609L299.278 217.292L301.378 215.656L298.082 211.425ZM157.936 174.222L159.312 169.038L150.586 166.721L152.725 175.493L157.936 174.222ZM458.112 167.33L457.448 172.653L460.091 172.983L461.952 171.076L458.112 167.33ZM559.43 63.4683L564.556 61.8871L561.895 53.2601L555.591 59.7226L559.43 63.4683ZM628.321 286.79L623.195 288.372L623.893 290.635L626.036 291.644L628.321 286.79ZM650.467 304.735L654.703 301.444L654.703 301.444L650.467 304.735ZM652.778 369.836L648.817 366.218L646.82 368.406L647.607 371.262L652.778 369.836ZM765.1 777.011L759.929 778.437L765.1 777.011ZM795.972 888.925L793.746 893.806L804.197 898.57L801.143 887.499L795.972 888.925ZM631.394 813.894L633.619 809.014L630.72 807.692L628.173 809.605L631.394 813.894ZM377.863 1004.26L372.692 1005.69L374.786 1013.28L381.084 1008.55L377.863 1004.26ZM234.563 484.786L239.734 483.359L238.965 480.573L236.216 479.682L234.563 484.786ZM203.145 433.734L197.789 433.446L203.145 433.734ZM213.838 403.548L218.134 406.76L219.648 404.734L219.049 402.277L213.838 403.548ZM299.458 206.24L159.312 169.038L156.56 179.407L296.705 216.609L299.458 206.24ZM372.239 168.365C343.23 176.368 317.146 189.771 294.785 207.193L301.378 215.656C322.648 199.084 347.465 186.328 375.092 178.707L372.239 168.365ZM458.776 162.007C430.605 158.492 401.293 160.35 372.239 168.365L375.092 178.707C402.762 171.074 430.652 169.309 457.448 172.653L458.776 162.007ZM555.591 59.7226L454.272 163.585L461.952 171.076L563.27 67.2139L555.591 59.7226ZM633.447 285.209L564.556 61.8871L554.305 65.0495L623.195 288.372L633.447 285.209ZM654.703 301.444C647.956 292.76 639.592 286.168 630.606 281.937L626.036 291.644C633.467 295.142 640.503 300.652 646.231 308.025L654.703 301.444ZM656.739 373.453C673.672 354.91 672.374 324.192 654.703 301.444L646.231 308.025C661.543 327.737 661.373 352.469 648.817 366.218L656.739 373.453ZM770.27 775.584L657.949 368.409L647.607 371.262L759.929 778.437L770.27 775.584ZM801.143 887.499L770.27 775.584L759.929 778.437L790.801 890.352L801.143 887.499ZM629.168 818.775L793.746 893.806L798.197 884.044L633.619 809.014L629.168 818.775ZM381.084 1008.55L634.614 818.184L628.173 809.605L374.642 999.973L381.084 1008.55ZM229.392 486.212L372.692 1005.69L383.034 1002.84L239.734 483.359L229.392 486.212ZM197.789 433.446C196.391 459.436 210.992 482.789 232.91 489.889L236.216 479.682C219.657 474.319 207.321 455.967 208.502 434.022L197.789 433.446ZM209.541 400.336C202.768 409.397 198.466 420.869 197.789 433.446L208.502 434.022C209.066 423.528 212.648 414.097 218.134 406.76L209.541 400.336ZM152.725 175.493L208.626 404.818L219.049 402.277L163.148 172.952L152.725 175.493Z" fill="#473667" mask="url(#path-18-inside-5_27_94)"/>
<path d="M365.599 376.141C363.624 398.909 343.565 415.765 320.797 413.79C298.029 411.814 281.173 391.756 283.149 368.988L283.48 365.17L365.93 372.324L365.599 376.141Z" stroke="#473667" stroke-width="5.36409"/>
<path d="M352.14 374.172C350.814 389.452 337.353 400.764 322.073 399.438C306.793 398.113 295.482 384.651 296.807 369.372L296.965 367.559L352.297 372.36L352.14 374.172Z" fill="#FFAB08" stroke="#473667" stroke-width="5.36409"/>
<path d="M493.676 336.191C503.237 348.183 520.709 350.154 532.702 340.593C544.694 331.032 546.665 313.559 537.104 301.567L535.969 300.144L492.542 334.768L493.676 336.191Z" fill="#FFAB08" stroke="#473667" stroke-width="5.36409"/>
<path d="M432.366 473.863L418.176 446.916C418.176 446.916 430.258 443.033 435.011 437.476C440.893 430.598 442.861 416.469 442.861 416.469C442.861 416.469 452.218 428.886 461.294 432.873C468.68 436.117 480.271 432.915 480.271 432.915L480.092 462.22C480.025 473.175 472.921 482.844 462.487 486.182C450.787 489.925 438.089 484.732 432.366 473.863Z" fill="#473667"/>
<path d="M385.281 411.51L384.913 415.753C383.537 431.606 395.273 445.572 411.126 446.947V446.947C426.979 448.323 440.945 436.587 442.321 420.734L442.689 416.491" stroke="#473667" stroke-width="5.36409"/>
<path d="M489.855 385.842L492.346 389.297C501.655 402.202 498.739 420.21 485.834 429.519V429.519C472.928 438.827 454.92 435.912 445.611 423.006L443.12 419.552" stroke="#473667" stroke-width="5.36409"/>
<path d="M328.097 334.713C331.635 321.109 345.532 312.948 359.137 316.486C372.742 320.025 380.902 333.922 377.364 347.526L376.992 348.956L327.725 336.143L328.097 334.713Z" stroke="#473667" stroke-width="5.36409"/>
<path d="M497.39 288.013C487.378 278.146 471.262 278.265 461.396 288.278C451.529 298.291 451.648 314.406 461.661 324.272L462.713 325.309L498.442 289.049L497.39 288.013Z" stroke="#473667" stroke-width="5.36409"/>
<mask id="path-28-inside-6_27_94" fill="white">
<path fill-rule="evenodd" clip-rule="evenodd" d="M489.687 765.605C487.718 751.587 475.392 741.573 461.529 742.212C463.006 738.161 463.538 733.699 462.896 729.131C460.806 714.253 447.051 703.886 432.173 705.976C419.237 707.794 409.711 718.43 408.819 730.955C395.947 733.242 385.211 740.733 378.488 750.936L334.666 757.56C323.157 759.299 312.164 752.162 309.069 740.942L298.396 702.25L288.411 666.054C255.672 675.085 235.06 707.403 240.675 740.897L244.135 761.531C251.002 802.489 289.245 830.522 330.371 824.744L393.597 815.862C402.236 820.946 412.59 823.253 423.287 821.75C424.361 821.599 425.421 821.412 426.467 821.191C431.715 830.912 442.616 836.833 454.197 835.206C469.075 833.116 479.442 819.36 477.351 804.482C476.828 800.756 475.573 797.312 473.751 794.277C484.601 789.487 491.419 777.931 489.687 765.605Z"/>
</mask>
<path fill-rule="evenodd" clip-rule="evenodd" d="M489.687 765.605C487.718 751.587 475.392 741.573 461.529 742.212C463.006 738.161 463.538 733.699 462.896 729.131C460.806 714.253 447.051 703.886 432.173 705.976C419.237 707.794 409.711 718.43 408.819 730.955C395.947 733.242 385.211 740.733 378.488 750.936L334.666 757.56C323.157 759.299 312.164 752.162 309.069 740.942L298.396 702.25L288.411 666.054C255.672 675.085 235.06 707.403 240.675 740.897L244.135 761.531C251.002 802.489 289.245 830.522 330.371 824.744L393.597 815.862C402.236 820.946 412.59 823.253 423.287 821.75C424.361 821.599 425.421 821.412 426.467 821.191C431.715 830.912 442.616 836.833 454.197 835.206C469.075 833.116 479.442 819.36 477.351 804.482C476.828 800.756 475.573 797.312 473.751 794.277C484.601 789.487 491.419 777.931 489.687 765.605Z" fill="#EFECF6"/>
<path d="M461.529 742.212L461.776 747.57L453.731 747.941L456.489 740.375L461.529 742.212ZM408.819 730.955L414.169 731.336L413.872 735.505L409.757 736.236L408.819 730.955ZM378.488 750.936L382.967 753.888L381.652 755.883L379.289 756.24L378.488 750.936ZM334.666 757.56L333.864 752.256L334.666 757.56ZM309.069 740.942L314.24 739.516L314.24 739.516L309.069 740.942ZM298.396 702.25L293.225 703.677L298.396 702.25ZM288.411 666.054L286.984 660.883L292.155 659.456L293.582 664.627L288.411 666.054ZM240.675 740.897L235.385 741.784L240.675 740.897ZM244.135 761.531L238.845 762.418L238.845 762.418L244.135 761.531ZM393.597 815.862L392.85 810.55L394.704 810.29L396.317 811.239L393.597 815.862ZM426.467 821.191L425.355 815.943L429.28 815.112L431.187 818.643L426.467 821.191ZM473.751 794.277L469.152 797.037L466.024 791.825L471.585 789.37L473.751 794.277ZM461.282 736.853C477.885 736.089 492.641 748.073 494.999 764.859L484.376 766.352C482.795 755.1 472.9 747.058 461.776 747.57L461.282 736.853ZM468.208 728.385C468.975 733.844 468.339 739.192 466.569 744.049L456.489 740.375C457.672 737.129 458.101 733.554 457.584 729.877L468.208 728.385ZM431.426 700.664C449.238 698.162 465.706 710.573 468.208 728.385L457.584 729.877C455.906 717.933 444.863 709.61 432.919 711.288L431.426 700.664ZM403.468 730.574C404.537 715.577 415.933 702.841 431.426 700.664L432.919 711.288C422.54 712.746 414.886 721.282 414.169 731.336L403.468 730.574ZM374.009 747.985C381.509 736.601 393.501 728.228 407.881 725.674L409.757 736.236C398.393 738.255 388.913 744.864 382.967 753.888L374.009 747.985ZM379.289 756.24L335.467 762.863L333.864 752.256L377.686 745.633L379.289 756.24ZM335.467 762.863C321.273 765.009 307.716 756.207 303.898 742.368L314.24 739.516C316.613 748.118 325.041 753.589 333.864 752.256L335.467 762.863ZM303.898 742.368L293.225 703.677L303.567 700.824L314.24 739.516L303.898 742.368ZM293.225 703.677L283.24 667.48L293.582 664.627L303.567 700.824L293.225 703.677ZM289.837 671.225C259.749 679.525 240.804 709.227 245.965 740.01L235.385 741.784C229.315 705.579 251.596 670.645 286.984 660.883L289.837 671.225ZM245.965 740.01L249.425 760.644L238.845 762.418L235.385 741.784L245.965 740.01ZM249.425 760.644C255.811 798.735 291.378 824.806 329.624 819.432L331.117 830.056C287.113 836.238 246.192 806.243 238.845 762.418L249.425 760.644ZM329.624 819.432L392.85 810.55L394.343 821.174L331.117 830.056L329.624 819.432ZM424.034 827.062C412.093 828.74 400.522 826.161 390.876 820.485L396.317 811.239C403.949 815.73 413.086 817.767 422.541 816.438L424.034 827.062ZM427.578 826.439C426.412 826.686 425.23 826.894 424.034 827.062L422.541 816.438C423.492 816.305 424.431 816.139 425.355 815.943L427.578 826.439ZM454.943 840.518C441.07 842.467 428.025 835.37 421.746 823.739L431.187 818.643C435.404 826.455 444.161 831.199 453.451 829.894L454.943 840.518ZM482.663 803.736C485.166 821.548 472.755 838.015 454.943 840.518L453.451 829.894C465.395 828.216 473.717 817.173 472.039 805.228L482.663 803.736ZM478.351 791.517C480.535 795.158 482.038 799.285 482.663 803.736L472.039 805.228C471.618 802.227 470.61 799.467 469.152 797.037L478.351 791.517ZM494.999 764.859C497.074 779.623 488.904 793.45 475.918 799.184L471.585 789.37C480.298 785.523 485.765 776.239 484.376 766.352L494.999 764.859Z" fill="#473667" mask="url(#path-28-inside-6_27_94)"/>
<path d="M251.151 697.157C234.695 722.306 248.922 774.084 248.922 774.084L261.635 795.617L308.77 750.42L286.253 668.793C286.253 668.793 260.801 682.409 251.151 697.157Z" fill="#473667"/>
<path d="M259.857 265.264C254.956 223.636 178.231 195.57 178.231 195.57L214.961 346.012C214.961 346.012 264.076 301.097 259.857 265.264Z" stroke="#473667" stroke-width="5.36409"/>
<path d="M516.85 202.718C499.715 164.464 551.201 101.031 551.201 101.031L596.796 249.028C596.796 249.028 531.6 235.646 516.85 202.718Z" stroke="#473667" stroke-width="5.36409"/>
<path d="M548.87 294.198C563.069 312.105 560.063 338.133 542.156 352.332C524.249 366.531 498.221 363.526 484.022 345.619L481.641 342.616L546.489 291.196L548.87 294.198Z" stroke="#473667" stroke-width="5.36409"/>
<path d="M465.509 382.305L443.21 418.442L405.538 398.848L465.509 382.305Z" stroke="#473667" stroke-width="5.36409"/>
<path d="M234.1 483.104L474.968 549.411" stroke="#473667" stroke-width="5.36409"/>
<path d="M652.207 367.768L475.171 550.15" stroke="#473667" stroke-width="5.36409"/>
<path d="M196.923 498.189L475.578 551.628L220.366 478.149L196.923 498.189Z" fill="#473667" stroke="#473667" stroke-width="5.36409"/>
<path d="M688.367 363.417L475.782 552.367L657.884 358.253L688.367 363.417Z" fill="#473667" stroke="#473667" stroke-width="5.36409"/>
<path d="M212.32 412.8C212.32 412.8 231.907 425.293 246.135 427.32C255.728 428.687 270.932 426.441 270.932 426.441C270.932 426.441 254.777 435.78 243.447 439.19C230.277 443.155 208.512 443.661 208.512 443.661" stroke="#473667" stroke-width="5.36409"/>
<path d="M640.642 297.03C640.642 297.03 630.23 317.798 619.054 326.833C611.518 332.925 597.313 338.792 597.313 338.792C597.313 338.792 615.971 338.527 627.447 335.647C640.788 332.298 659.734 321.573 659.734 321.573" stroke="#473667" stroke-width="5.36409"/>
<path d="M474.534 550.724L569.394 583.38L631.545 808.686" stroke="#473667" stroke-width="5.36409"/>
<path d="M460.476 165.488L449.183 279.892L443.519 281.454L378.917 195.458L367.709 302.367L361.877 303.975L293.528 211.541L299.526 209.886L362.879 295.909L374.336 189.25L379.834 187.733L444.228 273.627L454.811 167.05L460.476 165.488Z" fill="#473667"/>
<path d="M540.774 658.474C537.255 659.444 533.873 659.419 530.626 658.399C527.41 657.325 524.544 655.287 522.029 652.286C519.513 649.285 517.606 645.431 516.308 640.726C515.01 636.02 514.672 631.734 515.293 627.868C515.914 624.001 517.336 620.804 519.558 618.275C521.81 615.692 524.696 613.915 528.215 612.944C531.691 611.986 535.037 612.043 538.253 613.118C541.499 614.138 544.381 616.149 546.896 619.15C549.412 622.151 551.319 626.004 552.617 630.71C553.915 635.415 554.253 639.701 553.632 643.568C553.011 647.434 551.574 650.659 549.321 653.242C547.099 655.771 544.25 657.515 540.774 658.474ZM539.213 652.814C542.774 651.832 545.211 649.586 546.523 646.076C547.878 642.555 547.79 638.017 546.258 632.464C544.726 626.911 542.476 622.97 539.507 620.641C536.58 618.301 533.337 617.621 529.776 618.604C526.172 619.598 523.693 621.855 522.338 625.377C521.025 628.887 521.135 633.418 522.667 638.972C524.199 644.525 526.428 648.472 529.354 650.812C532.323 653.141 535.609 653.808 539.213 652.814Z" fill="#473667"/>
<path d="M554.806 689.637L567.085 734.149L560.79 735.886L550.037 696.906L539.99 699.678L538.464 694.145L554.806 689.637Z" fill="#473667"/>
<path d="M576.206 767.215L588.485 811.727L582.19 813.463L571.437 774.484L561.39 777.255L559.864 771.723L576.206 767.215Z" fill="#473667"/>
<path d="M475.342 644.163C471.823 645.134 468.441 645.109 465.194 644.088C461.978 643.014 459.112 640.976 456.597 637.975C454.081 634.974 452.174 631.121 450.876 626.415C449.578 621.71 449.239 617.424 449.861 613.557C450.482 609.691 451.904 606.493 454.126 603.964C456.378 601.381 459.264 599.604 462.782 598.634C466.259 597.675 469.605 597.733 472.821 598.807C476.067 599.828 478.948 601.838 481.464 604.839C483.98 607.84 485.887 611.694 487.185 616.399C488.483 621.105 488.821 625.391 488.2 629.257C487.579 633.124 486.142 636.348 483.889 638.931C481.667 641.46 478.818 643.204 475.342 644.163ZM473.781 638.504C477.342 637.521 479.778 635.275 481.091 631.766C482.446 628.244 482.358 623.707 480.826 618.153C479.294 612.6 477.044 608.659 474.075 606.33C471.148 603.99 467.905 603.311 464.344 604.293C460.74 605.287 458.261 607.545 456.906 611.066C455.593 614.576 455.703 619.108 457.235 624.661C458.767 630.214 460.996 634.161 463.922 636.502C466.891 638.83 470.177 639.498 473.781 638.504Z" fill="#473667"/>
<path d="M496.742 721.741C493.223 722.711 489.841 722.686 486.594 721.666C483.378 720.592 480.512 718.554 477.997 715.553C475.481 712.552 473.574 708.698 472.276 703.993C470.978 699.287 470.64 695.001 471.261 691.135C471.882 687.268 473.304 684.071 475.526 681.542C477.778 678.959 480.664 677.182 484.183 676.211C487.659 675.253 491.005 675.31 494.221 676.385C497.467 677.405 500.349 679.416 502.864 682.417C505.38 685.418 507.287 689.271 508.585 693.977C509.883 698.682 510.221 702.968 509.6 706.835C508.979 710.701 507.542 713.926 505.289 716.509C503.067 719.038 500.218 720.782 496.742 721.741ZM495.181 716.081C498.742 715.099 501.179 712.853 502.491 709.343C503.846 705.822 503.758 701.284 502.226 695.731C500.694 690.178 498.444 686.237 495.475 683.908C492.548 681.568 489.305 680.889 485.744 681.871C482.14 682.865 479.661 685.123 478.306 688.644C476.993 692.154 477.103 696.685 478.635 702.239C480.167 707.792 482.396 711.739 485.322 714.079C488.291 716.408 491.577 717.075 495.181 716.081Z" fill="#473667"/>
<path d="M510.774 752.904L523.053 797.416L516.758 799.153L506.005 760.173L495.958 762.945L494.432 757.412L510.774 752.904Z" fill="#473667"/>
<path d="M386.607 165.446C396.836 202.206 434.369 224.402 471.439 215.2C508.51 205.999 531.327 168.824 523.205 131.542L386.607 165.446Z" fill="#473667" stroke="#473667" stroke-width="7.07077"/>
<path d="M217.089 207.52C227.319 244.279 264.852 266.475 301.922 257.274C338.992 248.073 361.81 210.898 353.688 173.615L217.089 207.52Z" fill="#473667" stroke="#473667" stroke-width="7.07077"/>
<path d="M355.236 179.456L354.703 177.303C352.45 168.215 357.951 159.029 366.988 156.786V156.786C376.026 154.543 385.178 160.091 387.431 169.179L387.964 171.333" stroke="#473667" stroke-width="7.07077"/>
<rect width="120.776" height="7.8218" rx="3.9109" transform="matrix(0.965575 -0.249478 0.250362 0.970937 229.346 213.766)" fill="#EFECF6"/>
<rect width="120.776" height="7.8218" rx="3.9109" transform="matrix(0.965575 -0.249478 0.250362 0.970937 398.939 171.369)" fill="#EFECF6"/>
<rect width="103.896" height="7.8218" rx="3.9109" transform="matrix(0.965575 -0.249478 0.250362 0.970937 241.967 229.319)" fill="#EFECF6"/>
<rect width="103.896" height="7.8218" rx="3.9109" transform="matrix(0.965575 -0.249478 0.250362 0.970937 411.562 186.924)" fill="#EFECF6"/>
<rect width="75.9037" height="7.8218" rx="3.9109" transform="matrix(0.965575 -0.249478 0.250362 0.970937 259.473 245.162)" fill="#EFECF6"/>
<rect width="75.9037" height="7.8218" rx="3.9109" transform="matrix(0.965575 -0.249478 0.250362 0.970937 429.069 202.765)" fill="#EFECF6"/>
</svg>
