<svg width="84" height="84" viewBox="0 0 84 84" fill="none" xmlns="http://www.w3.org/2000/svg">
<circle cx="42" cy="42" r="42" fill="#A077E4"/>
<g clip-path="url(#clip0_28_502)">
<path fill-rule="evenodd" clip-rule="evenodd" d="M64.3832 52.6125C64.827 51.7336 64.3911 50.6865 63.4822 50.3081C62.5733 49.9297 61.5365 50.3642 61.0817 51.2374C59.4647 54.3422 57.0855 56.9981 54.1553 58.9484C50.7291 61.2288 46.7035 62.4421 42.5877 62.4347C38.4719 62.4274 34.4508 61.1997 31.0327 58.9069C28.1096 56.9462 25.7398 54.2818 24.134 51.1712C23.6823 50.2964 22.6471 49.8581 21.7368 50.2333C20.8266 50.6084 20.3869 51.654 20.8276 52.5344C22.7096 56.2948 25.5377 59.5141 29.0466 61.8678C33.0503 64.5533 37.7604 65.9913 42.5813 66C47.4023 66.0086 52.1175 64.5875 56.1307 61.9163C59.6481 59.5752 62.4878 56.366 64.3832 52.6125Z" fill="white"/>
<path fill-rule="evenodd" clip-rule="evenodd" d="M28 36C27.1716 36 26.5 35.3284 26.5 34.5L26.5 26C26.5 25.1716 27.1716 24.5 28 24.5C28.8284 24.5 29.5 25.1716 29.5 26L29.5 34.5C29.5 35.3284 28.8284 36 28 36Z" fill="white"/>
<path fill-rule="evenodd" clip-rule="evenodd" d="M47.9966 31.7444L58.1501 24.7638C58.8327 24.2945 59.7666 24.4674 60.2359 25.1501C60.7053 25.8328 60.5323 26.7666 59.8497 27.236L54.0032 31.2554L60.1386 34.1427C60.8882 34.4954 61.2099 35.389 60.8571 36.1386C60.5044 36.8882 59.6108 37.2099 58.8612 36.8571L47.9966 31.7444Z" fill="white"/>
</g>
<defs>
<clipPath id="clip0_28_502">
<rect width="50" height="50" fill="white" transform="translate(17 17)"/>
</clipPath>
</defs>
</svg>
