<svg width="84" height="84" viewBox="0 0 84 84" fill="none" xmlns="http://www.w3.org/2000/svg">
<circle cx="42" cy="42" r="42" fill="#EEAF35"/>
<circle cx="46.9494" cy="25.4719" r="5.97191" stroke="white" stroke-width="3"/>
<path d="M45.882 65.5C45.882 65.5 54.8299 57.5569 51.7528 53.2247C48.9742 49.3127 39.4775 52.691 39.4775 52.691L44.8146 37.2134C44.8146 37.2134 51.4381 44.1352 55.4888 42.0168C58.7143 40.3299 59.7584 35.0786 59.7584 35.0786" stroke="#F3F2FC" stroke-width="3" stroke-linecap="round"/>
<path d="M26.2872 38.172C26.0723 38.972 26.5466 39.7948 27.3467 40.0098C28.1467 40.2247 28.9695 39.7504 29.1845 38.9503L26.2872 38.172ZM38.4552 35.1761L39.8734 35.6647L40.8505 32.8283L39.4323 32.3397L38.4552 35.1761ZM32.5392 33.2243L33.0535 34.6334L32.5392 33.2243ZM27.7358 38.5611C29.1845 38.9503 29.1843 38.9509 29.1842 38.9514C29.1841 38.9515 29.184 38.9521 29.1839 38.9524C29.1837 38.953 29.1836 38.9536 29.1835 38.9541C29.1832 38.9551 29.183 38.9559 29.1828 38.9565C29.1825 38.9576 29.1824 38.9578 29.1826 38.9572C29.183 38.9558 29.1844 38.9509 29.1868 38.9427C29.1917 38.9262 29.2008 38.8965 29.2144 38.855C29.2417 38.7717 29.2868 38.6423 29.3526 38.4789C29.4849 38.1501 29.6961 37.6946 30.0053 37.2041C30.6289 36.2153 31.5977 35.1647 33.0535 34.6334L32.0249 31.8152C29.7447 32.6475 28.3119 34.2653 27.4677 35.604C27.0432 36.2773 26.754 36.9003 26.5694 37.3591C26.4767 37.5895 26.4093 37.7811 26.3636 37.9205C26.3407 37.9903 26.3232 38.0473 26.3107 38.0897C26.3044 38.1109 26.2993 38.1285 26.2954 38.1422C26.2935 38.1491 26.2918 38.1551 26.2905 38.16C26.2898 38.1625 26.2892 38.1648 26.2886 38.1667C26.2883 38.1677 26.2881 38.1687 26.2879 38.1695C26.2877 38.17 26.2876 38.1706 26.2875 38.1708C26.2874 38.1714 26.2872 38.172 27.7358 38.5611ZM33.0535 34.6334C33.8253 34.3517 35.0767 34.4081 36.3535 34.6436C36.9502 34.7536 37.4836 34.8891 37.8678 34.9973C38.0591 35.0512 38.2111 35.0977 38.3131 35.1299C38.364 35.146 38.4022 35.1585 38.4264 35.1665C38.4385 35.1705 38.447 35.1734 38.4519 35.175C38.4543 35.1758 38.4558 35.1763 38.4564 35.1765C38.4566 35.1766 38.4567 35.1766 38.4565 35.1766C38.4564 35.1765 38.4562 35.1765 38.456 35.1764C38.4559 35.1764 38.4557 35.1763 38.4556 35.1763C38.4554 35.1762 38.4552 35.1761 38.9437 33.7579C39.4323 32.3397 39.432 32.3396 39.4317 32.3395C39.4316 32.3395 39.4313 32.3394 39.431 32.3393C39.4306 32.3391 39.43 32.3389 39.4295 32.3387C39.4283 32.3383 39.4268 32.3378 39.4252 32.3373C39.4218 32.3361 39.4175 32.3347 39.4122 32.3329C39.4016 32.3293 39.3871 32.3244 39.369 32.3184C39.3327 32.3064 39.2817 32.2898 39.2174 32.2695C39.0888 32.2288 38.9062 32.1731 38.6813 32.1097C38.2331 31.9835 37.6073 31.8242 36.8977 31.6933C35.5616 31.4469 33.6108 31.2364 32.0249 31.8152L33.0535 34.6334Z" fill="#F3F2FC"/>
<path d="M39.4775 52.691C39.4775 52.691 36.3779 61.4058 31.4719 61.7639C27.4358 62.0586 24 55.8931 24 55.8931" stroke="#F3F2FC" stroke-width="3" stroke-linecap="round"/>
</svg>
