<svg width="84" height="84" viewBox="0 0 84 84" fill="none" xmlns="http://www.w3.org/2000/svg">
<circle cx="42" cy="42" r="42" fill="#44A8CD"/>
<path fill-rule="evenodd" clip-rule="evenodd" d="M59.2192 17.3677L60.4796 24.9299C60.6158 25.747 60.0638 26.5199 59.2466 26.6561C58.4295 26.7923 57.6566 26.2402 57.5204 25.4231L57.0395 22.5375L45.1596 37.231L38.23 31.6873L25.1088 46.0887C24.5509 46.7011 23.6021 46.7452 22.9898 46.1872C22.3774 45.6293 22.3333 44.6806 22.8912 44.0682L37.9072 27.5872L44.7032 33.024L54.546 20.85L51.2571 21.1789C50.4328 21.2613 49.6977 20.6599 49.6153 19.8356C49.5329 19.0112 50.1343 18.2762 50.9586 18.1937L59.2192 17.3677Z" fill="#F3F2FC"/>
<path fill-rule="evenodd" clip-rule="evenodd" d="M59.2192 36.5833L60.4796 44.1455C60.6158 44.9626 60.0638 45.7355 59.2466 45.8717C58.4295 46.0078 57.6566 45.4558 57.5204 44.6387L57.0395 41.753L45.1596 56.4466L38.23 50.9029L25.1088 65.3043C24.5509 65.9166 23.6021 65.9608 22.9898 65.4028C22.3774 64.8449 22.3333 63.8962 22.8912 63.2838L37.9072 46.8028L44.7032 52.2395L54.546 40.0655L51.2571 40.3944C50.4328 40.4769 49.6977 39.8754 49.6153 39.0511C49.5329 38.2268 50.1343 37.4917 50.9586 37.4093L59.2192 36.5833Z" fill="#F3F2FC"/>
</svg>
