<svg width="84" height="84" viewBox="0 0 84 84" fill="none" xmlns="http://www.w3.org/2000/svg">
<circle cx="42" cy="42" r="42" fill="#E06AC6"/>
<g clip-path="url(#clip0_28_501)">
<path fill-rule="evenodd" clip-rule="evenodd" d="M42.6251 62.9999C54.4302 62.9999 64.0002 53.43 64.0002 41.6248C64.0002 29.8197 54.4302 20.2498 42.6251 20.2498C30.82 20.2498 21.25 29.8197 21.25 41.6248C21.25 53.43 30.82 62.9999 42.6251 62.9999ZM42.6251 65.9999C56.0871 65.9999 67.0002 55.0868 67.0002 41.6248C67.0002 28.1629 56.0871 17.2498 42.6251 17.2498C29.1631 17.2498 18.25 28.1629 18.25 41.6248C18.25 55.0868 29.1631 65.9999 42.6251 65.9999Z" fill="white"/>
<path fill-rule="evenodd" clip-rule="evenodd" d="M40.2844 44.1676L40.2844 28.1767C40.2844 27.3483 40.956 26.6767 41.7844 26.6767C42.6128 26.6767 43.2844 27.3483 43.2844 28.1767L43.2844 42.4445L52.6265 47.894C53.342 48.3114 53.5838 49.2299 53.1663 49.9455C52.7489 50.6611 51.8304 50.9028 51.1149 50.4854L40.2844 44.1676Z" fill="white"/>
</g>
<defs>
<clipPath id="clip0_28_501">
<rect width="50" height="50" fill="white" transform="translate(17 17)"/>
</clipPath>
</defs>
</svg>
