<svg width="613" height="544" viewBox="0 0 613 544" fill="none" xmlns="http://www.w3.org/2000/svg">
<path d="M7.31872 0.703722H14.4967V99.2249H7.31872V0.703722Z" fill="#473667"/>
<path d="M70.502 7.17797H35.0344V0.703722H113.148V7.17797H77.68V99.2249H70.502V7.17797Z" fill="#473667"/>
<path d="M127.42 0.703722H133.894L133.331 37.0158H127.983L127.42 0.703722Z" fill="#473667"/>
<path d="M190.239 99.9286C183.014 99.9286 176.118 98.7088 169.55 96.2692C163.076 93.7358 158.009 90.4987 154.349 86.5579L157.587 81.2096C161.058 84.8689 165.703 87.8715 171.52 90.2172C177.432 92.4691 183.624 93.5951 190.099 93.5951C199.482 93.5951 206.566 91.8123 211.351 88.2468C216.136 84.6813 218.529 80.0367 218.529 74.3131C218.529 69.9031 217.262 66.3845 214.729 63.7573C212.195 61.13 209.052 59.1127 205.299 57.7052C201.546 56.2978 196.479 54.8434 190.099 53.3422C182.874 51.5594 177.056 49.8236 172.646 48.1346C168.33 46.4457 164.624 43.8654 161.527 40.3937C158.525 36.8281 157.024 32.0897 157.024 26.1785C157.024 21.3932 158.29 17.0301 160.824 13.0892C163.357 9.05456 167.204 5.86436 172.365 3.51862C177.619 1.17287 184.14 0 191.928 0C197.37 0 202.719 0.797553 207.973 2.39266C213.228 3.98777 217.778 6.14585 221.625 8.86691L218.951 14.6374C215.01 11.9164 210.647 9.85211 205.862 8.44467C201.17 7.03723 196.526 6.3335 191.928 6.3335C182.827 6.3335 175.93 8.16318 171.239 11.8225C166.547 15.4819 164.202 20.2203 164.202 26.0377C164.202 30.4477 165.468 33.9663 168.002 36.5936C170.535 39.2208 173.678 41.2381 177.432 42.6456C181.185 44.053 186.298 45.5543 192.773 47.1494C199.998 48.9322 205.768 50.668 210.084 52.357C214.4 54.0459 218.06 56.6262 221.062 60.0979C224.159 63.4758 225.707 68.0734 225.707 73.8909C225.707 78.6762 224.393 83.0393 221.766 86.9801C219.233 90.921 215.292 94.0642 209.944 96.41C204.595 98.7557 198.027 99.9286 190.239 99.9286Z" fill="#473667"/>
<path d="M93.7358 141.704V240.225H70.7945L27.3044 187.727V240.225H0V141.704H22.9414L66.4314 194.201V141.704H93.7358Z" fill="#473667"/>
<path d="M165.89 242.195C155.475 242.195 146.092 239.99 137.742 235.58C129.485 231.17 122.963 225.071 118.178 217.284C113.487 209.496 111.141 200.723 111.141 190.964C111.141 181.206 113.487 172.433 118.178 164.645C122.963 156.857 129.485 150.758 137.742 146.348C146.092 141.938 155.475 139.733 165.89 139.733C176.306 139.733 185.642 141.938 193.899 146.348C202.249 150.758 208.771 156.857 213.462 164.645C218.247 172.433 220.64 181.206 220.64 190.964C220.64 200.723 218.247 209.496 213.462 217.284C208.771 225.071 202.249 231.17 193.899 235.58C185.642 239.99 176.306 242.195 165.89 242.195ZM165.89 219.113C170.863 219.113 175.367 217.94 179.402 215.595C183.437 213.249 186.627 209.965 188.973 205.742C191.318 201.426 192.491 196.5 192.491 190.964C192.491 185.428 191.318 180.549 188.973 176.327C186.627 172.011 183.437 168.68 179.402 166.334C175.367 163.988 170.863 162.815 165.89 162.815C160.917 162.815 156.414 163.988 152.379 166.334C148.344 168.68 145.154 172.011 142.808 176.327C140.463 180.549 139.29 185.428 139.29 190.964C139.29 196.5 140.463 201.426 142.808 205.742C145.154 209.965 148.344 213.249 152.379 215.595C156.414 217.94 160.917 219.113 165.89 219.113Z" fill="#473667"/>
<path d="M257.647 163.801H227.387V141.704H315.634V163.801H285.514V240.225H257.647V163.801Z" fill="#473667"/>
<path d="M100.492 381.225L100.351 296.919L59.1127 368.136H55.5941L14.3559 297.2V381.225H7.31872V282.704H13.3707L57.4238 358.846L101.477 282.704H107.388L107.529 381.225H100.492Z" fill="#473667"/>
<path d="M205.635 353.498H148.493L135.967 381.225H128.226L173.546 282.704H180.724L226.043 381.225H218.302L205.635 353.498ZM202.961 347.446L177.064 290.585L151.308 347.446H202.961Z" fill="#473667"/>
<path d="M315.742 332.387H322.638V369.262C318.322 373.39 313.067 376.533 306.875 378.691C300.776 380.85 294.302 381.929 287.452 381.929C277.694 381.929 268.874 379.771 260.992 375.454C253.204 371.138 247.058 365.18 242.554 357.58C238.144 349.98 235.939 341.441 235.939 331.964C235.939 322.487 238.144 313.949 242.554 306.349C247.058 298.749 253.204 292.79 260.992 288.474C268.874 284.158 277.741 282 287.593 282C294.818 282 301.433 283.173 307.438 285.519C313.537 287.771 318.744 291.101 323.06 295.511L318.556 300.297C314.428 296.168 309.783 293.213 304.623 291.43C299.556 289.553 293.926 288.615 287.733 288.615C279.289 288.615 271.642 290.492 264.792 294.245C258.036 297.998 252.735 303.206 248.888 309.867C245.041 316.436 243.117 323.801 243.117 331.964C243.117 340.034 245.041 347.399 248.888 354.061C252.829 360.629 258.177 365.837 264.933 369.684C271.689 373.437 279.289 375.314 287.733 375.314C298.993 375.314 308.329 372.311 315.742 366.306V332.387Z" fill="#473667"/>
<path d="M357.041 282.704H364.219V381.225H357.041V282.704Z" fill="#473667"/>
<path d="M443.025 381.929C433.361 381.929 424.635 379.771 416.847 375.454C409.153 371.138 403.054 365.18 398.55 357.58C394.14 349.98 391.935 341.441 391.935 331.964C391.935 322.487 394.14 313.949 398.55 306.349C403.054 298.749 409.153 292.79 416.847 288.474C424.635 284.158 433.361 282 443.025 282C450.156 282 456.724 283.173 462.729 285.519C468.734 287.771 473.848 291.148 478.071 295.652L473.567 300.297C465.685 292.509 455.598 288.615 443.307 288.615C435.05 288.615 427.543 290.492 420.788 294.245C414.032 297.998 408.73 303.206 404.883 309.867C401.036 316.436 399.113 323.801 399.113 331.964C399.113 340.127 401.036 347.54 404.883 354.202C408.73 360.77 414.032 365.931 420.788 369.684C427.543 373.437 435.05 375.314 443.307 375.314C455.505 375.314 465.591 371.373 473.567 363.491L478.071 368.136C473.848 372.639 468.688 376.064 462.589 378.41C456.584 380.756 450.062 381.929 443.025 381.929Z" fill="#473667"/>
<path d="M0 453.04H3.90566V489.985H0V453.04Z" fill="#473667"/>
<path d="M24.1601 456.418H11.1764V453.04H41.0494V456.418H28.0657V489.985H24.1601V456.418Z" fill="#473667"/>
<path d="M46.2271 453.04H49.5522L49.2883 466.973H46.491L46.2271 453.04Z" fill="#473667"/>
<path d="M70.5134 490.302C67.7689 490.302 65.1299 489.862 62.5965 488.982C60.0983 488.103 58.1631 486.942 56.7908 485.499L58.3214 482.49C59.6585 483.828 61.4354 484.918 63.6521 485.763C65.8688 486.572 68.1559 486.977 70.5134 486.977C73.8209 486.977 76.3015 486.379 77.9553 485.182C79.609 483.951 80.4359 482.367 80.4359 480.432C80.4359 478.954 79.9785 477.776 79.0636 476.896C78.184 476.016 77.0932 475.348 75.7913 474.89C74.4894 474.398 72.6773 473.87 70.3551 473.307C67.5754 472.603 65.3586 471.935 63.7049 471.301C62.0511 470.633 60.6261 469.63 59.4298 468.293C58.2686 466.956 57.6881 465.144 57.6881 462.857C57.6881 460.992 58.1807 459.303 59.1659 457.79C60.1511 456.242 61.6641 455.01 63.7049 454.095C65.7457 453.18 68.2791 452.723 71.3051 452.723C73.4163 452.723 75.4746 453.022 77.4802 453.62C79.521 454.183 81.2803 454.975 82.7582 455.995L81.4387 459.109C79.8905 458.089 78.2368 457.332 76.4774 456.84C74.7181 456.312 72.994 456.048 71.3051 456.048C68.068 456.048 65.6225 456.681 63.9688 457.948C62.3502 459.18 61.5409 460.781 61.5409 462.751C61.5409 464.229 61.9808 465.425 62.8604 466.34C63.7753 467.22 64.9012 467.906 66.2383 468.398C67.6105 468.856 69.4402 469.366 71.7273 469.929C74.4366 470.598 76.6182 471.266 78.2719 471.935C79.9609 472.568 81.3859 473.553 82.5471 474.89C83.7082 476.192 84.2888 477.969 84.2888 480.221C84.2888 482.086 83.7786 483.792 82.7582 485.341C81.773 486.854 80.2424 488.067 78.1664 488.982C76.0904 489.862 73.5394 490.302 70.5134 490.302Z" fill="#473667"/>
<path d="M114.265 461.326H102.917V453.04H136.01V461.326H124.715V489.985H114.265V461.326Z" fill="#473667"/>
<path d="M170.621 481.91V489.985H140.959V453.04H169.935V461.115H151.303V467.343H167.718V475.154H151.303V481.91H170.621Z" fill="#473667"/>
<path d="M195.844 490.724C191.973 490.724 188.49 489.915 185.393 488.296C182.332 486.642 179.922 484.355 178.163 481.435C176.403 478.514 175.524 475.207 175.524 471.512C175.524 467.818 176.403 464.51 178.163 461.59C179.922 458.669 182.332 456.4 185.393 454.781C188.49 453.128 191.973 452.301 195.844 452.301C199.222 452.301 202.265 452.899 204.975 454.095C207.684 455.292 209.936 457.016 211.73 459.268L205.08 465.284C202.687 462.399 199.785 460.957 196.372 460.957C194.366 460.957 192.571 461.396 190.988 462.276C189.44 463.156 188.226 464.405 187.346 466.023C186.502 467.607 186.08 469.436 186.08 471.512C186.08 473.588 186.502 475.436 187.346 477.054C188.226 478.638 189.44 479.869 190.988 480.749C192.571 481.628 194.366 482.068 196.372 482.068C199.785 482.068 202.687 480.626 205.08 477.74L211.73 483.757C209.936 486.009 207.684 487.733 204.975 488.93C202.265 490.126 199.222 490.724 195.844 490.724Z" fill="#473667"/>
<path d="M252.596 453.04V489.985H242.146V475.576H227.896V489.985H217.445V453.04H227.896V466.921H242.146V453.04H252.596Z" fill="#473667"/>
<path d="M296.174 453.04V489.985H287.571L271.262 470.298V489.985H261.023V453.04H269.626L285.935 472.726V453.04H296.174Z" fill="#473667"/>
<path d="M323.232 490.724C319.326 490.724 315.808 489.897 312.676 488.243C309.58 486.59 307.134 484.303 305.34 481.382C303.581 478.462 302.701 475.172 302.701 471.512C302.701 467.853 303.581 464.563 305.34 461.643C307.134 458.722 309.58 456.435 312.676 454.781C315.808 453.128 319.326 452.301 323.232 452.301C327.138 452.301 330.639 453.128 333.735 454.781C336.867 456.435 339.312 458.722 341.071 461.643C342.866 464.563 343.763 467.853 343.763 471.512C343.763 475.172 342.866 478.462 341.071 481.382C339.312 484.303 336.867 486.59 333.735 488.243C330.639 489.897 327.138 490.724 323.232 490.724ZM323.232 482.068C325.097 482.068 326.786 481.628 328.299 480.749C329.812 479.869 331.008 478.638 331.888 477.054C332.768 475.436 333.207 473.588 333.207 471.512C333.207 469.436 332.768 467.607 331.888 466.023C331.008 464.405 329.812 463.156 328.299 462.276C326.786 461.396 325.097 460.957 323.232 460.957C321.367 460.957 319.678 461.396 318.165 462.276C316.652 463.156 315.456 464.405 314.576 466.023C313.697 467.607 313.257 469.436 313.257 471.512C313.257 473.588 313.697 475.436 314.576 477.054C315.456 478.638 316.652 479.869 318.165 480.749C319.678 481.628 321.367 482.068 323.232 482.068Z" fill="#473667"/>
<path d="M350.292 453.04H360.742V481.699H378.371V489.985H350.292V453.04Z" fill="#473667"/>
<path d="M401.626 490.724C397.72 490.724 394.201 489.897 391.07 488.243C387.973 486.59 385.528 484.303 383.734 481.382C381.974 478.462 381.095 475.172 381.095 471.512C381.095 467.853 381.974 464.563 383.734 461.643C385.528 458.722 387.973 456.435 391.07 454.781C394.201 453.128 397.72 452.301 401.626 452.301C405.531 452.301 409.032 453.128 412.129 454.781C415.26 456.435 417.706 458.722 419.465 461.643C421.26 464.563 422.157 467.853 422.157 471.512C422.157 475.172 421.26 478.462 419.465 481.382C417.706 484.303 415.26 486.59 412.129 488.243C409.032 489.897 405.531 490.724 401.626 490.724ZM401.626 482.068C403.491 482.068 405.179 481.628 406.692 480.749C408.205 479.869 409.402 478.638 410.281 477.054C411.161 475.436 411.601 473.588 411.601 471.512C411.601 469.436 411.161 467.607 410.281 466.023C409.402 464.405 408.205 463.156 406.692 462.276C405.179 461.396 403.491 460.957 401.626 460.957C399.761 460.957 398.072 461.396 396.559 462.276C395.046 463.156 393.85 464.405 392.97 466.023C392.09 467.607 391.65 469.436 391.65 471.512C391.65 473.588 392.09 475.436 392.97 477.054C393.85 478.638 395.046 479.869 396.559 480.749C398.072 481.628 399.761 482.068 401.626 482.068Z" fill="#473667"/>
<path d="M453.439 470.721H462.676V486.027C460.564 487.54 458.137 488.701 455.392 489.51C452.647 490.319 449.903 490.724 447.158 490.724C443.288 490.724 439.805 489.915 436.708 488.296C433.612 486.642 431.184 484.355 429.425 481.435C427.665 478.514 426.786 475.207 426.786 471.512C426.786 467.818 427.665 464.51 429.425 461.59C431.184 458.669 433.629 456.4 436.761 454.781C439.892 453.128 443.429 452.301 447.37 452.301C450.818 452.301 453.914 452.881 456.659 454.042C459.403 455.204 461.69 456.875 463.52 459.057L456.87 465.073C454.372 462.329 451.381 460.957 447.897 460.957C444.731 460.957 442.18 461.924 440.244 463.859C438.309 465.759 437.342 468.31 437.342 471.512C437.342 473.553 437.781 475.383 438.661 477.001C439.541 478.585 440.772 479.834 442.356 480.749C443.939 481.628 445.751 482.068 447.792 482.068C449.797 482.068 451.68 481.664 453.439 480.854V470.721Z" fill="#473667"/>
<path d="M490.149 476.738V489.985H479.698V476.579L465.606 453.04H476.637L485.399 467.712L494.16 453.04H504.294L490.149 476.738Z" fill="#473667"/>
<path d="M3.90566 509.418V523.932H23.0117V527.31H3.90566V542.985H0V506.04H25.334V509.418H3.90566Z" fill="#473667"/>
<path d="M50.1415 543.302C46.4821 543.302 43.157 542.493 40.1662 540.874C37.2106 539.22 34.8883 536.968 33.1993 534.118C31.5456 531.268 30.7187 528.066 30.7187 524.512C30.7187 520.959 31.5456 517.757 33.1993 514.907C34.8883 512.057 37.2106 509.822 40.1662 508.204C43.157 506.55 46.4821 505.723 50.1415 505.723C53.8008 505.723 57.0907 506.532 60.0112 508.151C62.9668 509.769 65.2891 512.021 66.978 514.907C68.667 517.757 69.5114 520.959 69.5114 524.512C69.5114 528.066 68.667 531.286 66.978 534.171C65.2891 537.021 62.9668 539.255 60.0112 540.874C57.0907 542.493 53.8008 543.302 50.1415 543.302ZM50.1415 539.818C53.0619 539.818 55.7009 539.167 58.0583 537.866C60.4158 536.528 62.2631 534.699 63.6002 532.377C64.9372 530.019 65.6058 527.398 65.6058 524.512C65.6058 521.627 64.9372 519.023 63.6002 516.701C62.2631 514.344 60.4158 512.514 58.0583 511.212C55.7009 509.875 53.0619 509.206 50.1415 509.206C47.221 509.206 44.5645 509.875 42.1718 511.212C39.8143 512.514 37.9495 514.344 36.5772 516.701C35.2401 519.023 34.5716 521.627 34.5716 524.512C34.5716 527.398 35.2401 530.019 36.5772 532.377C37.9495 534.699 39.8143 536.528 42.1718 537.866C44.5645 539.167 47.221 539.818 50.1415 539.818Z" fill="#473667"/>
<path d="M104.55 542.985L96.1051 531.11C95.1551 531.215 94.1699 531.268 93.1495 531.268H83.227V542.985H79.3213V506.04H93.1495C97.8644 506.04 101.559 507.166 104.233 509.418C106.907 511.669 108.244 514.766 108.244 518.707C108.244 521.592 107.505 524.037 106.028 526.043C104.585 528.013 102.509 529.438 99.7997 530.318L108.825 542.985H104.55ZM93.0439 527.943C96.7033 527.943 99.5006 527.134 101.436 525.515C103.371 523.897 104.339 521.627 104.339 518.707C104.339 515.716 103.371 513.429 101.436 511.845C99.5006 510.227 96.7033 509.418 93.0439 509.418H83.227V527.943H93.0439Z" fill="#473667"/>
<path d="M146.054 530.213V542.985H142.201V530.213L127.423 506.04H131.593L144.26 526.782L156.927 506.04H160.832L146.054 530.213Z" fill="#473667"/>
<path d="M182.498 543.302C178.838 543.302 175.513 542.493 172.522 540.874C169.567 539.22 167.244 536.968 165.556 534.118C163.902 531.268 163.075 528.066 163.075 524.512C163.075 520.959 163.902 517.757 165.556 514.907C167.244 512.057 169.567 509.822 172.522 508.204C175.513 506.55 178.838 505.723 182.498 505.723C186.157 505.723 189.447 506.532 192.367 508.151C195.323 509.769 197.645 512.021 199.334 514.907C201.023 517.757 201.868 520.959 201.868 524.512C201.868 528.066 201.023 531.286 199.334 534.171C197.645 537.021 195.323 539.255 192.367 540.874C189.447 542.493 186.157 543.302 182.498 543.302ZM182.498 539.818C185.418 539.818 188.057 539.167 190.415 537.866C192.772 536.528 194.619 534.699 195.956 532.377C197.293 530.019 197.962 527.398 197.962 524.512C197.962 521.627 197.293 519.023 195.956 516.701C194.619 514.344 192.772 512.514 190.415 511.212C188.057 509.875 185.418 509.206 182.498 509.206C179.577 509.206 176.921 509.875 174.528 511.212C172.171 512.514 170.306 514.344 168.933 516.701C167.596 519.023 166.928 521.627 166.928 524.512C166.928 527.398 167.596 530.019 168.933 532.377C170.306 534.699 172.171 536.528 174.528 537.866C176.921 539.167 179.577 539.818 182.498 539.818Z" fill="#473667"/>
<path d="M226.561 543.302C221.776 543.302 218.046 541.93 215.372 539.185C212.698 536.441 211.361 532.447 211.361 527.204V506.04H215.266V527.046C215.266 531.339 216.234 534.54 218.169 536.652C220.105 538.763 222.902 539.818 226.561 539.818C230.256 539.818 233.071 538.763 235.006 536.652C236.941 534.54 237.909 531.339 237.909 527.046V506.04H241.709V527.204C241.709 532.447 240.372 536.441 237.698 539.185C235.059 541.93 231.347 543.302 226.561 543.302Z" fill="#473667"/>
<path d="M279.762 542.985L271.318 531.11C270.368 531.215 269.382 531.268 268.362 531.268H258.439V542.985H254.534V506.04H268.362C273.077 506.04 276.771 507.166 279.446 509.418C282.12 511.669 283.457 514.766 283.457 518.707C283.457 521.592 282.718 524.037 281.24 526.043C279.797 528.013 277.721 529.438 275.012 530.318L284.037 542.985H279.762ZM268.256 527.943C271.916 527.943 274.713 527.134 276.648 525.515C278.584 523.897 279.551 521.627 279.551 518.707C279.551 515.716 278.584 513.429 276.648 511.845C274.713 510.227 271.916 509.418 268.256 509.418H258.439V527.943H268.256Z" fill="#473667"/>
<path d="M331.875 523.932C334.303 524.46 336.168 525.515 337.47 527.099C338.807 528.647 339.475 530.652 339.475 533.115C339.475 536.282 338.297 538.728 335.939 540.452C333.617 542.141 330.169 542.985 325.594 542.985H308.599V506.04H324.539C328.656 506.04 331.84 506.867 334.092 508.52C336.379 510.174 337.522 512.514 337.522 515.54C337.522 517.581 337.012 519.322 335.992 520.765C335.007 522.173 333.634 523.228 331.875 523.932ZM312.505 509.259V522.665H324.275C327.266 522.665 329.57 522.102 331.189 520.976C332.808 519.815 333.617 518.144 333.617 515.962C333.617 513.781 332.808 512.127 331.189 511.001C329.57 509.84 327.266 509.259 324.275 509.259H312.505ZM325.542 539.766C328.849 539.766 331.347 539.203 333.036 538.077C334.725 536.951 335.57 535.191 335.57 532.799C335.57 528.189 332.227 525.885 325.542 525.885H312.505V539.766H325.542Z" fill="#473667"/>
<path d="M364.329 543.302C359.544 543.302 355.814 541.93 353.14 539.185C350.466 536.441 349.129 532.447 349.129 527.204V506.04H353.035V527.046C353.035 531.339 354.002 534.54 355.937 536.652C357.873 538.763 360.67 539.818 364.329 539.818C368.024 539.818 370.839 538.763 372.774 536.652C374.709 534.54 375.677 531.339 375.677 527.046V506.04H379.477V527.204C379.477 532.447 378.14 536.441 375.466 539.185C372.827 541.93 369.115 543.302 364.329 543.302Z" fill="#473667"/>
<path d="M402.488 543.302C399.744 543.302 397.105 542.862 394.571 541.982C392.073 541.103 390.138 539.942 388.766 538.499L390.296 535.49C391.633 536.828 393.41 537.918 395.627 538.763C397.844 539.572 400.131 539.977 402.488 539.977C405.796 539.977 408.276 539.379 409.93 538.182C411.584 536.951 412.411 535.367 412.411 533.432C412.411 531.954 411.953 530.776 411.039 529.896C410.159 529.016 409.068 528.348 407.766 527.89C406.464 527.398 404.652 526.87 402.33 526.307C399.55 525.603 397.333 524.935 395.68 524.301C394.026 523.633 392.601 522.63 391.405 521.293C390.243 519.956 389.663 518.144 389.663 515.857C389.663 513.992 390.156 512.303 391.141 510.79C392.126 509.242 393.639 508.01 395.68 507.095C397.721 506.18 400.254 505.723 403.28 505.723C405.391 505.723 407.45 506.022 409.455 506.62C411.496 507.183 413.255 507.975 414.733 508.995L413.414 512.109C411.865 511.089 410.212 510.332 408.452 509.84C406.693 509.312 404.969 509.048 403.28 509.048C400.043 509.048 397.597 509.681 395.944 510.948C394.325 512.18 393.516 513.781 393.516 515.751C393.516 517.229 393.956 518.425 394.835 519.34C395.75 520.22 396.876 520.906 398.213 521.398C399.585 521.856 401.415 522.366 403.702 522.929C406.412 523.598 408.593 524.266 410.247 524.935C411.936 525.568 413.361 526.553 414.522 527.89C415.683 529.192 416.264 530.969 416.264 533.221C416.264 535.086 415.753 536.792 414.733 538.341C413.748 539.854 412.217 541.067 410.141 541.982C408.065 542.862 405.514 543.302 402.488 543.302Z" fill="#473667"/>
<path d="M425.829 506.04H429.735V542.985H425.829V506.04Z" fill="#473667"/>
<path d="M473.687 506.04V542.985H470.467L446.717 513.007V542.985H442.811V506.04H446.031L469.834 536.018V506.04H473.687Z" fill="#473667"/>
<path d="M512.927 539.607V542.985H486.801V506.04H512.135V509.418H490.707V522.56H509.813V525.885H490.707V539.607H512.927Z" fill="#473667"/>
<path d="M533.35 543.302C530.605 543.302 527.966 542.862 525.433 541.982C522.935 541.103 520.999 539.942 519.627 538.499L521.158 535.49C522.495 536.828 524.272 537.918 526.488 538.763C528.705 539.572 530.992 539.977 533.35 539.977C536.657 539.977 539.138 539.379 540.792 538.182C542.445 536.951 543.272 535.367 543.272 533.432C543.272 531.954 542.815 530.776 541.9 529.896C541.02 529.016 539.93 528.348 538.628 527.89C537.326 527.398 535.514 526.87 533.191 526.307C530.412 525.603 528.195 524.935 526.541 524.301C524.887 523.633 523.462 522.63 522.266 521.293C521.105 519.956 520.524 518.144 520.524 515.857C520.524 513.992 521.017 512.303 522.002 510.79C522.987 509.242 524.5 508.01 526.541 507.095C528.582 506.18 531.115 505.723 534.141 505.723C536.253 505.723 538.311 506.022 540.317 506.62C542.357 507.183 544.117 507.975 545.594 508.995L544.275 512.109C542.727 511.089 541.073 510.332 539.314 509.84C537.554 509.312 535.83 509.048 534.141 509.048C530.904 509.048 528.459 509.681 526.805 510.948C525.186 512.18 524.377 513.781 524.377 515.751C524.377 517.229 524.817 518.425 525.697 519.34C526.612 520.22 527.737 520.906 529.075 521.398C530.447 521.856 532.276 522.366 534.564 522.929C537.273 523.598 539.454 524.266 541.108 524.935C542.797 525.568 544.222 526.553 545.383 527.89C546.544 529.192 547.125 530.969 547.125 533.221C547.125 535.086 546.615 536.792 545.594 538.341C544.609 539.854 543.079 541.067 541.003 541.982C538.927 542.862 536.376 543.302 533.35 543.302Z" fill="#473667"/>
<path d="M566.877 543.302C564.132 543.302 561.493 542.862 558.96 541.982C556.462 541.103 554.527 539.942 553.154 538.499L554.685 535.49C556.022 536.828 557.799 537.918 560.016 538.763C562.232 539.572 564.519 539.977 566.877 539.977C570.184 539.977 572.665 539.379 574.319 538.182C575.972 536.951 576.799 535.367 576.799 533.432C576.799 531.954 576.342 530.776 575.427 529.896C574.547 529.016 573.457 528.348 572.155 527.89C570.853 527.398 569.041 526.87 566.719 526.307C563.939 525.603 561.722 524.935 560.068 524.301C558.415 523.633 556.99 522.63 555.793 521.293C554.632 519.956 554.052 518.144 554.052 515.857C554.052 513.992 554.544 512.303 555.529 510.79C556.515 509.242 558.028 508.01 560.068 507.095C562.109 506.18 564.643 505.723 567.669 505.723C569.78 505.723 571.838 506.022 573.844 506.62C575.884 507.183 577.644 507.975 579.122 508.995L577.802 512.109C576.254 511.089 574.6 510.332 572.841 509.84C571.082 509.312 569.357 509.048 567.669 509.048C564.431 509.048 561.986 509.681 560.332 510.948C558.714 512.18 557.904 513.781 557.904 515.751C557.904 517.229 558.344 518.425 559.224 519.34C560.139 520.22 561.265 520.906 562.602 521.398C563.974 521.856 565.804 522.366 568.091 522.929C570.8 523.598 572.982 524.266 574.635 524.935C576.324 525.568 577.749 526.553 578.911 527.89C580.072 529.192 580.652 530.969 580.652 533.221C580.652 535.086 580.142 536.792 579.122 538.341C578.136 539.854 576.606 541.067 574.53 541.982C572.454 542.862 569.903 543.302 566.877 543.302Z" fill="#473667"/>
</svg>
