<svg width="21" height="27" viewBox="0 0 21 27" fill="none" xmlns="http://www.w3.org/2000/svg">
<mask id="path-1-inside-1_23_204" fill="white">
<path fill-rule="evenodd" clip-rule="evenodd" d="M10.3524 26.8603C10.3524 26.8603 20.7049 16.1674 20.7049 10.4152C20.7049 4.66306 16.0699 0 10.3524 0C4.63494 0 0 4.66306 0 10.4152C0 16.1674 10.3524 26.8603 10.3524 26.8603ZM10 12C11.1046 12 12 11.1046 12 10C12 8.89543 11.1046 8 10 8C8.89543 8 8 8.89543 8 10C8 11.1046 8.89543 12 10 12Z"/>
</mask>
<path d="M10.3524 26.8603L9.63397 27.5559L10.3524 28.298L11.0709 27.5559L10.3524 26.8603ZM19.7049 10.4152C19.7049 11.598 19.1571 13.1639 18.2058 14.9392C17.2703 16.6852 16.011 18.514 14.7336 20.1883C13.459 21.8589 12.182 23.3555 11.2224 24.4355C10.7431 24.975 10.3442 25.4092 10.0658 25.7077C9.92669 25.857 9.81776 25.9722 9.74409 26.0497C9.70725 26.0884 9.67924 26.1177 9.66068 26.137C9.65139 26.1467 9.64447 26.1539 9.64 26.1585C9.63776 26.1609 9.63613 26.1625 9.63512 26.1636C9.63462 26.1641 9.63427 26.1645 9.63408 26.1647C9.63398 26.1648 9.63396 26.1648 9.63391 26.1648C9.63392 26.1648 9.63397 26.1648 10.3524 26.8603C11.0709 27.5559 11.071 27.5558 11.0712 27.5556C11.0713 27.5555 11.0715 27.5553 11.0717 27.5551C11.0722 27.5546 11.0728 27.554 11.0735 27.5532C11.075 27.5517 11.0771 27.5495 11.0799 27.5466C11.0853 27.5409 11.0933 27.5327 11.1036 27.522C11.1242 27.5005 11.1543 27.469 11.1933 27.428C11.2713 27.346 11.3847 27.226 11.5287 27.0716C11.8165 26.7629 12.2263 26.3168 12.7175 25.7639C13.6991 24.6592 15.0102 23.1231 16.3237 21.4014C17.6344 19.6835 18.9632 17.7605 19.9687 15.8838C20.9586 14.0363 21.7049 12.1086 21.7049 10.4152H19.7049ZM10.3524 1C15.5119 1 19.7049 5.20963 19.7049 10.4152H21.7049C21.7049 4.11649 16.6279 -1 10.3524 -1V1ZM1 10.4152C1 5.20963 5.19292 1 10.3524 1V-1C4.07696 -1 -1 4.11649 -1 10.4152H1ZM10.3524 26.8603C11.0709 26.1648 11.0709 26.1648 11.0709 26.1648C11.0709 26.1648 11.0709 26.1648 11.0708 26.1647C11.0706 26.1645 11.0702 26.1641 11.0697 26.1636C11.0687 26.1625 11.0671 26.1609 11.0649 26.1585C11.0604 26.1539 11.0535 26.1467 11.0442 26.137C11.0256 26.1177 10.9976 26.0884 10.9608 26.0497C10.8871 25.9722 10.7782 25.857 10.639 25.7077C10.3607 25.4092 9.96172 24.975 9.48242 24.4355C8.52284 23.3555 7.24585 21.8589 5.97125 20.1883C4.69383 18.514 3.43455 16.6852 2.49901 14.9392C1.54779 13.1639 1 11.598 1 10.4152H-1C-1 12.1086 -0.25374 14.0363 0.736121 15.8838C1.74166 17.7605 3.07049 19.6835 4.38118 21.4014C5.69469 23.1231 7.0058 24.6592 7.9873 25.7639C8.47854 26.3168 8.88837 26.7629 9.17618 27.0716C9.3201 27.226 9.43359 27.346 9.51156 27.428C9.55055 27.469 9.58067 27.5005 9.60128 27.522C9.61159 27.5327 9.61952 27.5409 9.62499 27.5466C9.62773 27.5495 9.62985 27.5517 9.63135 27.5532C9.6321 27.554 9.6327 27.5546 9.63313 27.5551C9.63335 27.5553 9.63356 27.5555 9.63367 27.5556C9.63384 27.5558 9.63397 27.5559 10.3524 26.8603ZM11 10C11 10.5523 10.5523 11 10 11V13C11.6569 13 13 11.6569 13 10H11ZM10 9C10.5523 9 11 9.44772 11 10H13C13 8.34315 11.6569 7 10 7V9ZM9 10C9 9.44772 9.44772 9 10 9V7C8.34315 7 7 8.34315 7 10H9ZM10 11C9.44772 11 9 10.5523 9 10H7C7 11.6569 8.34315 13 10 13V11Z" fill="white" mask="url(#path-1-inside-1_23_204)"/>
</svg>
