<svg width="30" height="30" viewBox="0 0 30 30" fill="none" xmlns="http://www.w3.org/2000/svg">
<path fill-rule="evenodd" clip-rule="evenodd" d="M30.0001 15C30.0001 23.2843 23.2843 30.0001 15 30.0001C6.71575 30.0001 0 23.2843 0 15C0 6.71575 6.71575 0 15 0C23.2843 0 30.0001 6.71575 30.0001 15ZM15.5378 11.0738C14.0788 11.6806 11.1629 12.9366 6.79008 14.8418C6.08001 15.1242 5.70804 15.4004 5.67417 15.6705C5.61695 16.127 6.18861 16.3068 6.96706 16.5516C7.07295 16.5849 7.18266 16.6194 7.29514 16.6559C8.06102 16.9049 9.09126 17.1961 9.62684 17.2077C10.1127 17.2182 10.6549 17.0179 11.2535 16.6068C15.3392 13.8489 17.4482 12.4549 17.5806 12.4249C17.6741 12.4037 17.8035 12.377 17.8912 12.455C17.9789 12.5329 17.9703 12.6806 17.961 12.7202C17.9044 12.9616 15.6604 15.0477 14.4992 16.1274C14.1371 16.4639 13.8803 16.7027 13.8278 16.7572C13.7102 16.8794 13.5904 16.9949 13.4752 17.1059C12.7637 17.7918 12.2301 18.3062 13.5048 19.1462C14.1173 19.5498 14.6074 19.8836 15.0964 20.2166C15.6304 20.5803 16.1631 20.943 16.8523 21.3948C17.0278 21.5099 17.1955 21.6294 17.3589 21.7458C17.9803 22.1889 18.5387 22.587 19.2285 22.5235C19.6293 22.4866 20.0433 22.1097 20.2536 20.9856C20.7505 18.3291 21.7273 12.5732 21.953 10.2014C21.9728 9.99355 21.9479 9.7276 21.928 9.61086C21.908 9.49411 21.8662 9.32777 21.7145 9.20464C21.5347 9.05881 21.2573 9.02806 21.1332 9.03024C20.569 9.04018 19.7034 9.34116 15.5378 11.0738Z" fill="white"/>
</svg>
