<svg width="30" height="30" viewBox="0 0 30 30" fill="none" xmlns="http://www.w3.org/2000/svg">
<path fill-rule="evenodd" clip-rule="evenodd" d="M2.10884 2.10884C0 4.21767 0 7.61177 0 14.4V15.6C0 22.3883 0 25.7824 2.10884 27.8913C4.21767 30.0001 7.61177 30.0001 14.4 30.0001H15.6C22.3883 30.0001 25.7824 30.0001 27.8913 27.8913C30.0001 25.7824 30.0001 22.3883 30.0001 15.6V14.4C30.0001 7.61177 30.0001 4.21767 27.8913 2.10884C25.7824 0 22.3883 0 15.6 0H14.4C7.61177 0 4.21767 0 2.10884 2.10884ZM5.06255 9.12514C5.22505 16.9252 9.125 21.6127 15.9625 21.6127H16.3501V17.1502C18.8627 17.4002 20.7625 19.2377 21.525 21.6127H25.0751C24.1001 18.0627 21.5375 16.1002 19.9375 15.3502C21.5375 14.4252 23.7875 12.1752 24.325 9.12514H21.0999C20.3999 11.6001 18.3252 13.8502 16.3501 14.0627V9.12514H13.125V17.7752C11.125 17.2752 8.60006 14.8502 8.48756 9.12514H5.06255Z" fill="white"/>
</svg>
