<svg width="30" height="30" viewBox="0 0 30 30" fill="none" xmlns="http://www.w3.org/2000/svg">
<path fill-rule="evenodd" clip-rule="evenodd" d="M5.46875 0C2.44844 0 0 2.44845 0 5.46875V24.5313C0 27.5516 2.44845 30.0001 5.46875 30.0001H24.5313C27.5516 30.0001 30.0001 27.5516 30.0001 24.5313V5.46875C30.0001 2.44844 27.5516 0 24.5313 0H5.46875ZM24.8257 10.1643C24.7121 9.73969 24.4883 9.35215 24.1766 9.04047C23.8649 8.7288 23.4763 8.50392 23.0496 8.38836C21.479 7.96875 15.2011 7.96875 15.2011 7.96875C15.2011 7.96875 8.92317 7.96875 7.35255 8.38836C6.9259 8.50392 6.53728 8.7288 6.22558 9.04047C5.91389 9.35215 5.69005 9.73969 5.57647 10.1643C5.15642 11.7316 5.15642 15 5.15642 15C5.15642 15 5.15642 18.2684 5.57647 19.8357C5.69005 20.2604 5.91389 20.6479 6.22558 20.9596C6.53728 21.2712 6.9259 21.4961 7.35255 21.6117C8.92317 22.0313 15.2011 22.0313 15.2011 22.0313C15.2011 22.0313 21.479 22.0313 23.0496 21.6117C23.4763 21.4961 23.8649 21.2712 24.1766 20.9596C24.4883 20.6479 24.7121 20.2604 24.8257 19.8357C25.2458 18.2684 25.2458 15 25.2458 15C25.2458 15 25.2458 11.7316 24.8257 10.1643ZM13.1465 17.9679L18.3971 15L13.1465 12.0321V17.9679Z" fill="white"/>
</svg>
